<?xml version="1.0" standalone="no"?>
<!DOCTYPE svg PUBLIC "-//W3C//DTD SVG 20010904//EN"
 "http://www.w3.org/TR/2001/REC-SVG-20010904/DTD/svg10.dtd">
<svg version="1.0" xmlns="http://www.w3.org/2000/svg"
 width="270.000000pt" height="270.000000pt" viewBox="0 0 270.000000 270.000000"
 preserveAspectRatio="xMidYMid meet">
<metadata>
Created by potrace 1.11, written by Peter Selinger 2001-2013
</metadata>
<g transform="translate(0.000000,270.000000) scale(0.100000,-0.100000)"
fill="#000000" stroke="none">
<path d="M795 2121 c-25 -12 -156 -134 -357 -333 -330 -326 -358 -360 -358
-438 0 -74 28 -108 349 -425 171 -170 326 -319 344 -332 49 -35 122 -41 180
-15 40 18 154 123 390 358 4 4 13 1 21 -5 11 -9 20 -10 38 -1 21 10 22 10 4
-4 -18 -14 -15 -36 5 -36 6 0 7 4 4 10 -3 5 -1 10 5 10 7 0 9 -7 6 -16 -4 -10
3 -26 16 -40 25 -26 38 -30 38 -13 0 5 -4 7 -10 4 -6 -4 -7 1 -3 11 5 13 3 15
-7 9 -9 -6 -11 -4 -5 5 6 10 4 12 -11 6 -16 -6 -17 -5 -6 6 11 11 17 9 33 -11
11 -14 17 -31 14 -42 -8 -24 3 -24 22 -1 13 15 13 15 3 -6 -10 -20 -7 -27 19
-51 18 -17 32 -24 35 -17 2 6 5 2 5 -10 1 -24 55 -79 69 -70 6 4 14 1 18 -5 4
-8 3 -9 -4 -5 -7 4 -12 5 -12 1 0 -9 70 -68 99 -83 25 -13 127 -19 138 -8 3 3
-2 17 -11 31 -21 31 -13 49 15 35 11 -6 17 -15 14 -20 -3 -4 -2 -10 2 -13 5
-2 2 -2 -4 -1 -15 4 -18 -12 -4 -20 13 -8 74 36 87 63 8 16 13 19 17 9 4 -9 6
-8 6 4 1 9 -6 21 -15 26 -15 8 -15 10 0 15 10 4 15 3 11 -3 -3 -6 1 -13 10
-17 18 -6 38 15 28 31 -3 5 -2 6 3 3 6 -3 31 15 57 41 25 26 52 52 59 58 30
26 54 61 55 82 1 12 -2 20 -8 17 -5 -4 -9 -1 -9 5 0 7 6 10 13 7 6 -2 12 -11
12 -20 0 -28 9 -26 35 9 14 18 31 34 38 34 11 0 16 13 13 33 -1 5 2 6 7 3 4
-2 14 -1 22 4 11 7 11 14 3 33 -11 23 -10 24 23 22 22 -1 34 3 34 12 0 7 7 13
16 13 8 0 13 3 11 8 -3 4 1 13 9 20 8 7 14 10 14 6 0 -3 7 -1 15 6 11 9 12 16
5 25 -5 6 -7 15 -3 18 3 4 2 7 -4 7 -17 0 -23 -13 -11 -27 6 -7 8 -16 4 -20
-3 -3 -6 -1 -6 7 0 10 -3 10 -15 0 -10 -9 -15 -9 -15 -1 0 6 5 11 11 11 5 0 8
4 5 9 -8 12 21 34 34 26 6 -3 8 -11 5 -16 -4 -5 -2 -9 4 -9 5 0 15 8 20 18 6
9 11 14 11 10 0 -13 50 35 50 48 0 6 6 14 14 17 9 4 12 14 9 26 -7 26 -23 28
-23 3 0 -10 -3 -22 -6 -25 -9 -8 -44 11 -44 24 0 6 8 3 18 -7 16 -17 17 -17
20 2 6 32 22 41 37 21 9 -13 15 -15 20 -6 4 6 2 15 -5 19 -8 5 -7 9 4 13 9 4
16 12 16 18 0 8 -4 9 -13 0 -10 -8 -19 -4 -35 19 -12 16 -22 36 -22 45 0 9 -5
13 -11 10 -6 -4 -8 -14 -4 -24 5 -12 4 -13 -6 -4 -9 10 -10 15 0 27 8 10 9 16
1 21 -5 3 -10 11 -10 17 0 6 9 -1 20 -15 11 -14 20 -32 20 -39 0 -22 12 -29
27 -17 9 9 13 8 13 0 0 -6 -4 -11 -10 -11 -5 0 -7 -7 -4 -15 9 -23 29 -2 32
33 1 19 -3 32 -13 36 -8 3 -15 11 -15 18 0 9 3 9 11 -2 9 -12 10 -12 5 3 -3
10 -6 21 -6 24 0 3 -6 0 -14 -6 -11 -9 -12 -6 -8 15 3 19 1 25 -7 20 -6 -4
-11 -1 -11 6 0 7 -53 66 -119 130 -83 83 -121 114 -128 107 -16 -16 -58 28
-44 45 8 10 8 16 -2 25 -8 6 -17 8 -20 4 -4 -3 -7 -1 -7 6 0 15 -66 81 -74 74
-3 -4 -6 -1 -6 6 0 15 -67 80 -75 73 -3 -3 -5 0 -5 7 0 6 -19 30 -42 51 -42
41 -55 49 -42 28 4 -7 3 -8 -4 -4 -7 4 -12 11 -12 17 0 15 -42 59 -52 53 -4
-3 -8 1 -8 8 0 9 -3 9 -10 -2 -8 -13 -10 -12 -10 3 0 9 -6 18 -12 18 -58 7
-85 4 -96 -10 -8 -9 -11 -10 -7 -3 9 17 -10 15 -48 -4 -37 -19 -68 -49 -60
-58 10 -10 25 -7 18 4 -4 6 1 7 12 3 16 -6 16 -5 4 10 -7 9 -9 17 -3 17 5 0
12 -6 15 -14 3 -7 16 -12 30 -11 13 2 30 -2 38 -7 11 -8 10 -9 -4 -4 -11 3
-20 0 -23 -9 -4 -8 -11 -15 -16 -15 -6 0 -5 7 2 15 12 14 10 15 -16 10 -16 -4
-41 -8 -55 -8 -34 -2 -82 -49 -73 -71 3 -9 10 -16 16 -16 5 0 7 4 4 9 -3 4 1
17 9 27 15 19 15 19 8 0 -5 -15 -3 -17 8 -11 8 4 4 -3 -9 -16 -22 -23 -24 -23
-36 -6 -13 16 -16 15 -50 -15 -20 -17 -36 -36 -36 -42 0 -6 5 -5 12 2 7 7 16
12 20 12 4 0 0 -8 -9 -18 -10 -10 -21 -14 -24 -9 -6 8 -59 -33 -59 -46 0 -3 7
-13 16 -21 8 -9 11 -16 5 -16 -5 0 -14 7 -19 16 -8 15 -11 15 -30 -2 -11 -11
-28 -25 -37 -32 -15 -13 -15 -15 1 -33 16 -18 16 -19 1 -13 -9 3 -17 11 -17
16 0 5 -6 8 -12 5 -7 -3 -92 73 -188 169 -107 106 -190 179 -212 189 -50 20
-114 19 -163 -4z m1035 -1 c0 -5 -2 -10 -4 -10 -3 0 -8 5 -11 10 -3 6 -1 10 4
10 6 0 11 -4 11 -10z m50 -32 c0 -4 8 -5 18 -1 14 5 15 4 4 -8 -11 -12 -16
-10 -32 11 -11 14 -20 30 -19 35 0 6 6 1 14 -9 8 -11 15 -23 15 -28z m-117 9
c4 3 7 1 7 -5 0 -15 -17 -16 -26 -1 -4 8 -9 7 -15 -2 -5 -8 -9 -9 -9 -3 0 17
12 25 25 14 7 -5 15 -7 18 -3z m51 5 c2 -4 -4 -8 -14 -8 -10 0 -16 4 -14 8 3
4 9 8 14 8 5 0 11 -4 14 -8z m36 -12 c0 -5 -4 -10 -10 -10 -5 0 -10 5 -10 10
0 6 5 10 10 10 6 0 10 -4 10 -10z m-25 -20 c4 -6 16 -8 28 -5 20 5 20 5 4 -5
-12 -8 -22 -8 -30 -2 -7 5 -21 12 -32 15 -19 4 -18 5 2 6 12 0 25 -4 28 -9z
m121 -11 c3 -6 1 -16 -6 -22 -10 -9 -12 -8 -7 6 8 21 0 21 -43 3 -20 -8 -28
-16 -21 -20 6 -4 17 -4 24 0 9 5 9 4 0 -6 -10 -10 -15 -11 -27 -1 -10 8 -16 9
-21 1 -3 -5 -11 -10 -18 -10 -24 0 72 57 100 59 6 1 15 -4 19 -10z m-126 -14
c7 -9 8 -15 2 -15 -5 0 -12 7 -16 15 -3 8 -4 15 -2 15 2 0 9 -7 16 -15z m-156
-28 c-3 -8 4 -13 16 -13 13 0 19 5 15 14 -2 7 0 10 5 7 6 -3 10 -1 10 6 0 7 3
10 6 6 8 -7 -27 -67 -39 -67 -5 0 -4 7 4 16 11 14 10 15 -6 12 -14 -2 -20 3
-21 19 -1 12 2 20 7 17 4 -2 6 -10 3 -17z m126 13 c0 8 3 11 6 8 3 -4 1 -16
-5 -27 -10 -18 -15 -19 -31 -9 -10 7 -17 14 -15 17 3 2 11 -2 20 -9 18 -15 20
0 3 20 -11 12 -10 12 5 1 14 -11 17 -11 17 -1z m140 -25 c0 -5 -5 -3 -10 5 -5
8 -10 20 -10 25 0 6 5 3 10 -5 5 -8 10 -19 10 -25z m45 15 c3 -5 13 -6 23 -3
13 4 13 2 -3 -10 -11 -9 -27 -17 -35 -17 -23 0 -39 -20 -33 -39 3 -12 2 -11
-7 2 -10 15 -8 21 7 32 10 8 26 15 36 15 10 0 15 5 12 11 -4 6 -14 8 -22 5 -8
-3 -11 -1 -8 4 8 13 22 13 30 0z m-251 -34 c-3 -9 -10 -16 -15 -16 -5 0 -4 9
3 20 14 22 21 20 12 -4z m126 -50 c0 -4 -4 -6 -10 -6 -5 0 -9 3 -8 8 1 4 -4
17 -11 30 -11 20 -15 21 -28 10 -15 -12 -15 -11 -3 9 14 22 14 22 37 -12 13
-19 23 -36 23 -39z m15 41 c-6 -18 -2 -17 19 8 14 17 25 24 26 18 0 -7 -4 -13
-10 -13 -5 0 -10 -6 -10 -14 0 -16 -27 -29 -35 -16 -3 4 -2 15 1 24 5 12 2 15
-12 10 -15 -5 -16 -4 -4 4 20 15 32 4 25 -21z m161 -3 c-7 -17 5 -18 24 -1 12
10 12 9 1 -5 -11 -15 -11 -18 -1 -18 8 0 11 -3 8 -6 -4 -3 -16 -1 -27 5 -14 8
-18 17 -14 29 6 15 5 15 -10 3 -10 -7 -17 -9 -17 -3 0 12 21 21 33 15 5 -3 6
-11 3 -19z m-261 -8 c0 -9 7 -21 15 -26 8 -5 11 -10 7 -10 -19 0 -55 33 -50
46 7 19 28 12 28 -10z m-105 -30 c-7 -9 -16 -13 -21 -10 -5 3 -9 0 -9 -5 0 -6
-5 -11 -11 -11 -6 0 -1 14 12 31 15 21 25 27 32 20 7 -7 6 -15 -3 -25z m145
24 c-3 -5 -1 -10 6 -10 7 0 10 -2 7 -5 -3 -3 -13 -2 -22 1 -14 5 -15 9 -4 15
17 11 20 11 13 -1z m168 3 c-7 -2 -19 -2 -25 0 -7 3 -2 5 12 5 14 0 19 -2 13
-5z m-277 -38 c-6 -17 -26 -20 -26 -4 0 5 5 7 10 4 6 -3 10 4 11 17 0 13 3 17
6 10 3 -7 2 -19 -1 -27z m28 5 c-6 -6 -10 -3 -10 10 0 13 4 16 10 10 7 -7 7
-13 0 -20z m302 3 c-6 -6 -36 9 -36 18 0 5 9 4 20 -3 10 -7 18 -14 16 -15z
m-436 7 c0 -5 -4 -10 -10 -10 -5 0 -10 5 -10 10 0 6 5 10 10 10 6 0 10 -4 10
-10z m320 0 c0 -5 -10 -14 -21 -21 -13 -6 -19 -7 -15 -1 3 6 0 13 -6 16 -7 3
-2 3 11 0 16 -4 21 -3 17 5 -4 6 -2 11 3 11 6 0 11 -4 11 -10z m60 -4 c-7 -7
-13 -7 -20 0 -6 6 -3 10 10 10 13 0 16 -4 10 -10z m118 -21 c-3 -3 -9 2 -12
12 -6 14 -5 15 5 6 7 -7 10 -15 7 -18z m-322 1 c3 -8 1 -23 -5 -33 -9 -15 -10
-13 -5 10 4 17 2 27 -6 27 -6 0 -9 -4 -5 -9 9 -15 -13 -23 -32 -11 -16 9 -15
10 5 5 12 -4 22 -3 21 2 -4 26 18 33 27 9z m61 -18 c-4 -14 -2 -18 9 -14 8 3
13 2 9 -3 -3 -5 0 -11 7 -13 7 -3 4 -7 -7 -12 -11 -4 -16 -4 -13 0 4 4 -4 15
-17 26 -14 11 -25 24 -25 31 0 6 7 2 16 -9 15 -18 15 -18 8 5 -4 17 -3 21 6
16 6 -4 9 -16 7 -27z m133 -12 c-1 -6 -7 0 -15 14 -8 14 -15 21 -16 15 -1 -5
-2 -14 -3 -20 0 -5 -5 -10 -9 -10 -5 0 -15 -12 -23 -27 -16 -30 -28 -35 -40
-16 -5 7 -2 9 8 5 10 -3 19 3 27 19 7 15 16 22 23 18 8 -5 9 -2 4 11 -9 25 15
40 32 18 6 -9 12 -22 12 -27z m54 17 c3 -8 3 -20 -1 -26 -4 -7 -8 -16 -9 -22
-1 -5 -5 -17 -9 -26 -4 -10 0 -19 10 -23 13 -4 15 -1 10 13 -3 11 -1 22 4 25
11 7 51 -31 51 -48 0 -6 -12 3 -26 19 -16 19 -23 23 -20 12 9 -28 -2 -39 -25
-26 -14 7 -18 16 -14 27 4 9 8 22 9 27 1 6 5 16 10 23 5 9 2 20 -9 30 -16 16
-17 16 -11 -5 4 -12 2 -24 -3 -27 -8 -5 -9 37 -2 51 3 7 30 -11 35 -24z m65
-17 c0 -6 -3 -5 -6 2 -2 6 -8 10 -12 8 -4 -3 -8 5 -8 17 -2 21 -1 22 13 3 8
-11 14 -25 13 -30z m-491 26 c14 10 15 10 5 -2 -18 -20 -16 -35 2 -20 9 7 18
10 22 6 3 -3 1 -6 -6 -6 -8 0 -7 -7 4 -24 15 -22 14 -24 -9 -40 -14 -9 -29
-16 -33 -16 -4 0 4 8 19 18 21 14 24 21 17 35 -6 10 -14 15 -19 12 -9 -5 -31
26 -29 42 0 4 3 2 6 -5 4 -10 8 -10 21 0z m281 -22 c11 -24 11 -24 -3 -6 -9
11 -16 24 -16 30 0 12 5 7 19 -24z m-199 10 c8 -5 11 -10 5 -10 -5 0 -17 5
-25 10 -8 5 -10 10 -5 10 6 0 17 -5 25 -10z m460 -1 c13 -9 12 -10 -2 -5 -10
3 -20 1 -23 -4 -3 -5 4 -12 16 -15 11 -4 18 -9 16 -12 -11 -10 -46 18 -41 32
7 18 14 18 34 4z m-588 -21 c-7 -7 -12 -8 -12 -2 0 6 3 14 7 17 3 4 9 5 12 2
2 -3 -1 -11 -7 -17z m114 -5 c4 -10 6 -22 5 -26 -1 -5 9 -6 21 -2 20 5 21 5 5
-5 -20 -13 -52 4 -41 21 3 5 0 9 -5 9 -6 0 -11 5 -11 10 0 16 17 11 26 -7z
m73 -2 c22 -17 22 -49 0 -36 -5 4 -9 -3 -9 -15 0 -12 4 -19 9 -15 22 13 22
-19 0 -36 -26 -20 -53 -26 -29 -6 9 7 15 29 15 57 0 28 -6 50 -15 57 -24 20 3
14 29 -6z m94 -41 c-3 -3 -8 1 -10 8 -3 6 -8 10 -13 7 -12 -8 -33 23 -24 36 5
9 14 4 30 -16 13 -16 20 -32 17 -35z m222 38 c-9 -6 -19 -7 -22 -4 -4 3 -1 6
6 6 7 0 9 4 6 10 -4 6 1 7 11 3 15 -6 15 -7 -1 -15z m-535 -8 c0 -5 -9 -14
-20 -20 -14 -7 -20 -7 -20 0 0 5 7 10 16 10 8 0 12 5 9 10 -3 6 -1 10 4 10 6
0 11 -4 11 -10z m65 0 c4 -6 12 -7 18 -3 7 4 6 0 -2 -10 -7 -9 -22 -17 -32
-17 -10 0 -21 -5 -25 -11 -4 -7 -10 -7 -16 -1 -7 7 -6 16 1 29 10 16 11 15 5
-7 -5 -20 -4 -23 7 -12 7 6 21 12 32 12 10 0 15 5 12 11 -4 6 -14 8 -22 5 -8
-3 -11 -1 -8 4 8 13 22 13 30 0z m359 -4 c-10 -8 -21 -12 -24 -10 -5 6 21 24
34 24 6 0 1 -6 -10 -14z m164 6 c8 -6 2 -9 -18 -9 -20 0 -26 3 -18 9 7 4 15 8
18 8 3 0 11 -4 18 -8z m-126 -9 c-6 -2 -10 -9 -7 -14 4 -5 -2 -6 -12 -2 -17 6
-17 5 0 -14 9 -11 17 -24 17 -29 0 -4 -7 2 -16 14 -11 16 -19 20 -28 13 -8 -7
-17 -6 -26 0 -13 9 -13 10 0 6 8 -2 26 4 39 14 13 11 29 19 35 18 7 0 6 -3 -2
-6z m209 -10 c13 -17 13 -17 -6 -3 -11 8 -22 16 -24 17 -2 2 0 3 6 3 6 0 17
-8 24 -17z m-420 -20 c-12 -20 -14 -14 -5 12 4 9 9 14 11 11 3 -2 0 -13 -6
-23z m384 -4 c-5 -14 -3 -17 9 -13 9 3 13 11 9 17 -4 6 -1 7 7 2 10 -6 9 -11
-5 -21 -23 -17 -32 -11 -32 21 0 13 4 22 9 19 5 -3 6 -14 3 -25z m-55 11 c0
-5 -4 -10 -10 -10 -5 0 -10 5 -10 10 0 6 5 10 10 10 6 0 10 -4 10 -10z m20
-20 c-6 -12 -14 -20 -17 -17 -2 3 1 14 8 26 7 11 15 18 17 16 2 -2 -2 -13 -8
-25z m-606 5 c4 -10 -3 -19 -18 -27 -16 -7 -22 -16 -19 -26 4 -10 2 -13 -5 -8
-19 11 -14 25 12 37 14 7 22 17 19 25 -3 8 -3 14 0 14 3 0 8 -7 11 -15z m146
5 c0 -5 -4 -10 -10 -10 -5 0 -10 5 -10 10 0 6 5 10 10 10 6 0 10 -4 10 -10z
m143 3 c-7 -2 -13 -9 -13 -14 0 -6 9 -5 23 1 21 11 21 11 3 -4 -12 -10 -24
-12 -29 -7 -11 11 0 31 16 30 9 0 9 -2 0 -6z m77 -10 c0 -3 -7 -2 -16 1 -12 5
-14 1 -9 -17 5 -19 4 -20 -5 -4 -13 21 -5 38 15 30 8 -3 15 -7 15 -10z m331
-10 c-12 -20 -14 -14 -5 12 4 9 9 14 11 11 3 -2 0 -13 -6 -23z m-751 -3 c0 -5
-4 -10 -9 -10 -5 0 -11 -10 -15 -22 -5 -22 -6 -22 -23 -6 -14 14 -15 20 -4 30
10 11 11 10 6 -3 -4 -10 -2 -20 3 -23 6 -3 13 5 16 19 6 24 26 36 26 15z m119
-3 c6 -8 8 -17 4 -20 -3 -4 -1 -7 5 -7 7 0 12 -5 12 -11 0 -6 -14 -1 -30 11
-17 12 -28 26 -25 31 9 13 21 11 34 -4z m55 4 c3 -4 -1 -17 -10 -27 -14 -18
-15 -18 -4 4 7 15 7 22 0 22 -5 0 -10 -5 -10 -12 0 -6 -3 -9 -6 -5 -7 7 4 27
16 27 5 0 11 -4 14 -9z m66 -2 c12 -8 10 -9 -9 -4 -13 4 -21 3 -18 -2 7 -11
-21 -48 -30 -39 -4 4 -1 11 7 16 8 6 11 10 6 10 -5 0 -3 7 4 15 15 18 20 18
40 4z m210 -3 c-2 -11 22 -26 32 -20 4 3 8 10 8 15 0 6 -5 7 -12 3 -7 -5 -8
-3 -3 6 6 10 11 9 22 -5 7 -11 13 -24 12 -29 0 -6 -3 -5 -6 2 -4 10 -10 9 -26
-5 -11 -10 -17 -12 -13 -5 4 6 2 13 -3 13 -6 1 -17 2 -23 3 -7 1 -18 -5 -25
-14 -18 -22 -16 -3 3 26 16 23 38 30 34 10z m324 -12 c3 -8 2 -12 -4 -9 -6 3
-10 1 -10 -6 0 -7 -2 -10 -5 -7 -5 5 4 38 10 38 2 0 6 -7 9 -16z m-675 -38 c0
-6 -3 -6 -6 2 -2 6 -8 10 -12 7 -5 -2 -17 2 -27 10 -19 15 -19 15 0 8 15 -5
17 -3 11 8 -5 8 1 5 13 -5 12 -11 22 -24 21 -30z m212 17 c-12 -20 -14 -14 -5
12 4 9 9 14 11 11 3 -2 0 -13 -6 -23z m69 18 c0 -10 -30 -25 -43 -22 -16 3 -1
-34 18 -46 11 -7 16 -12 10 -12 -18 -1 -39 17 -41 35 -3 22 14 46 27 38 5 -3
9 0 9 5 0 6 5 11 10 11 6 0 10 -4 10 -9z m175 -1 c5 -8 11 -7 21 1 12 10 17 9
27 0 9 -10 8 -11 -4 -6 -10 4 -20 2 -24 -4 -3 -6 2 -11 12 -11 11 0 24 -5 31
-12 9 -9 15 -9 24 0 7 7 21 12 33 11 17 -1 16 -2 -5 -8 -14 -4 -24 -14 -22
-21 2 -9 -4 -8 -22 4 -14 9 -30 16 -37 16 -6 0 -22 9 -36 20 -14 11 -21 20
-15 20 6 0 14 -5 17 -10z m129 2 c2 -4 -4 -8 -14 -8 -10 0 -16 4 -14 8 3 4 9
8 14 8 5 0 11 -4 14 -8z m34 -6 c-7 -8 -15 -12 -17 -11 -5 6 10 25 20 25 5 0
4 -6 -3 -14z m-78 -6 c0 -5 -4 -10 -10 -10 -5 0 -10 5 -10 10 0 6 5 10 10 10
6 0 10 -4 10 -10z m-100 -8 c0 -5 10 -13 22 -19 18 -8 19 -10 6 -16 -11 -4
-22 3 -32 19 -9 13 -12 24 -6 24 5 0 10 -4 10 -8z m188 -9 c-16 -15 -16 -17 0
-30 15 -13 15 -13 -4 -4 -12 6 -25 7 -29 3 -10 -9 5 19 20 35 5 7 14 12 20 13
5 0 2 -8 -7 -17z m-690 -19 c0 -17 -3 -22 -8 -13 -5 6 -6 18 -3 26 8 19 11 16
11 -13z m355 13 c3 -8 2 -20 -3 -26 -5 -9 -7 -4 -7 13 0 29 2 32 10 13z m61
-3 c3 -8 2 -12 -4 -9 -6 3 -11 1 -11 -4 -1 -6 -2 -17 -3 -23 -1 -7 5 -18 14
-25 25 -20 -3 -14 -29 6 -23 18 -22 49 1 35 8 -5 9 -1 5 10 -4 10 -3 15 3 11
6 -3 10 -1 10 4 0 16 7 13 14 -5z m330 1 c-7 -16 -24 -21 -24 -6 0 8 7 13 27
20 1 1 0 -6 -3 -14z m-779 -5 c3 -5 2 -10 -4 -10 -5 0 -13 5 -16 10 -3 6 -2
10 4 10 5 0 13 -4 16 -10z m60 0 c3 -5 1 -10 -4 -10 -6 0 -11 5 -11 10 0 6 2
10 4 10 3 0 8 -4 11 -10z m60 0 c3 -5 1 -10 -4 -10 -6 0 -11 5 -11 10 0 6 2
10 4 10 3 0 8 -4 11 -10z m55 0 c8 -5 11 -10 5 -10 -5 0 -17 5 -25 10 -8 5
-10 10 -5 10 6 0 17 -5 25 -10z m60 0 c8 -5 11 -10 5 -10 -5 0 -17 5 -25 10
-8 5 -10 10 -5 10 6 0 17 -5 25 -10z m60 -1 c13 -9 12 -10 -2 -5 -10 3 -22 -2
-27 -12 -12 -19 -14 -12 -5 12 7 19 14 20 34 5z m70 1 c0 -5 -5 -10 -11 -10
-5 0 -7 5 -4 10 3 6 8 10 11 10 2 0 4 -4 4 -10z m130 0 c0 -5 -4 -10 -10 -10
-5 0 -10 5 -10 10 0 6 5 10 10 10 6 0 10 -4 10 -10z m34 -30 c-6 -5 -24 21
-24 34 0 6 6 1 14 -10 8 -10 12 -21 10 -24z m-563 7 c-8 -8 -14 -7 -23 2 -11
10 -9 11 6 5 15 -6 17 -4 11 6 -6 9 -4 11 4 5 9 -5 10 -10 2 -18z m815 -5
c-17 -16 -18 -16 -5 5 7 12 15 20 18 17 3 -2 -3 -12 -13 -22z m-686 7 c0 -5 4
-8 9 -5 14 9 36 -23 24 -35 -7 -7 -17 -1 -32 20 -13 17 -18 31 -12 31 6 0 11
-5 11 -11z m70 -20 c4 -16 8 -20 14 -11 4 6 4 18 0 25 -5 9 -4 9 6 0 10 -10
11 -15 1 -27 -8 -10 -9 -16 -1 -21 5 -3 10 -11 10 -17 0 -6 -9 1 -20 15 -11
14 -20 33 -20 42 0 9 -4 13 -10 10 -5 -3 -10 -1 -10 5 0 21 24 4 30 -21z m68
10 c25 -23 20 -43 -9 -34 -14 5 -17 3 -13 -10 4 -10 13 -14 23 -10 9 4 21 8
26 9 6 1 20 8 33 15 20 11 21 15 10 28 -12 15 -11 15 9 2 l22 -13 -31 -20
c-18 -11 -37 -21 -42 -22 -6 -1 -19 -5 -28 -9 -11 -4 -20 0 -27 14 -13 23 -2
34 26 25 11 -3 7 4 -12 20 -16 14 -25 26 -19 26 5 0 20 -9 32 -21z m372 17 c0
-2 -7 -7 -16 -10 -8 -3 -12 -2 -9 4 6 10 25 14 25 6z m-610 -10 c0 -2 -8 -10
-17 -17 -16 -13 -17 -12 -4 4 13 16 21 21 21 13z m18 -33 c-6 -7 -16 -13 -22
-13 -7 0 -6 4 2 9 8 4 13 11 13 15 -3 23 0 30 9 16 5 -9 5 -19 -2 -27z m58 25
c4 -6 3 -8 -3 -5 -6 4 -14 0 -17 -9 -4 -11 -1 -14 13 -9 21 6 46 -18 38 -37
-3 -7 -6 -4 -6 7 -1 17 -3 18 -12 5 -9 -12 -10 -12 -5 4 5 14 2 17 -10 12 -24
-9 -36 2 -24 25 12 22 16 23 26 7z m218 -4 c3 -8 2 -12 -4 -9 -6 3 -10 1 -10
-6 0 -7 -2 -10 -5 -7 -5 5 4 38 10 38 2 0 6 -7 9 -16z m183 -3 c0 -11 -5 -17
-9 -15 -5 3 -6 9 -3 14 3 4 -1 11 -7 13 -8 4 -7 6 4 6 11 1 16 -6 15 -18z m24
-4 c-10 -9 -11 -8 -5 6 3 10 9 15 12 12 3 -3 0 -11 -7 -18z m319 3 c0 -5 -4
-10 -10 -10 -5 0 -10 5 -10 10 0 6 5 10 10 10 6 0 10 -4 10 -10z m60 3 c0 -5
-5 -15 -10 -23 -7 -12 -9 -10 -7 8 1 19 17 33 17 15z m-484 -30 c-4 -10 -1
-13 13 -8 24 7 33 -6 19 -25 -8 -12 -9 -12 -4 2 4 14 0 17 -17 15 -17 -1 -21
3 -19 17 3 17 2 18 -12 7 -9 -8 -16 -9 -16 -3 0 12 21 21 33 15 5 -3 6 -12 3
-20z m-19 -39 c-2 -2 -10 2 -17 11 -11 13 -15 12 -32 -10 -11 -14 -24 -25 -31
-25 -6 0 -3 6 8 13 12 10 14 16 7 21 -7 4 -12 2 -12 -3 0 -6 -5 -11 -11 -11
-8 0 -8 5 1 15 10 12 16 13 28 3 13 -11 15 -10 9 5 -4 11 -3 16 3 12 6 -3 10
-1 10 4 0 6 9 2 21 -10 11 -11 19 -23 16 -25z m468 36 c3 -6 -1 -7 -9 -4 -18
7 -21 14 -7 14 6 0 13 -4 16 -10z m45 -5 c0 -8 -4 -15 -10 -15 -5 0 -7 7 -4
15 4 8 8 15 10 15 2 0 4 -7 4 -15z m-826 -16 c20 -12 36 -23 36 -25 0 -5 -44
18 -70 35 -27 19 -2 11 34 -10z m102 7 c20 -21 17 -28 -6 -14 -11 7 -20 16
-20 20 0 12 10 9 26 -6z m747 -11 c-3 -9 -8 -14 -10 -11 -3 3 -2 9 2 15 9 16
15 13 8 -4z m-878 -5 c3 -6 -1 -7 -9 -4 -18 7 -21 14 -7 14 6 0 13 -4 16 -10z
m105 -11 c0 -5 -11 -14 -24 -20 -14 -7 -22 -17 -19 -25 3 -8 3 -14 0 -14 -3 0
-8 7 -11 15 -4 10 3 19 18 27 16 7 22 16 19 26 -4 10 -2 13 5 8 7 -4 12 -12
12 -17z m800 14 c0 -5 -10 -19 -21 -33 l-20 -25 16 33 c15 30 25 41 25 25z
m-688 -42 c-11 -16 -18 -32 -15 -35 4 -3 15 6 25 21 10 16 18 24 18 18 0 -5
-8 -20 -18 -32 -12 -16 -21 -20 -31 -14 -12 8 -12 12 -2 24 10 13 8 18 -11 31
-12 9 -18 16 -14 16 5 0 18 -8 29 -17 19 -17 20 -17 14 0 -4 11 -3 16 3 12 6
-3 10 -1 10 6 0 7 3 9 7 6 4 -4 -3 -20 -15 -36z m113 19 c3 -5 0 -7 -8 -4 -8
3 -18 1 -22 -5 -3 -6 0 -11 7 -11 8 0 23 -7 34 -16 10 -8 14 -13 8 -10 -6 3
-24 10 -39 16 -23 9 -25 13 -15 25 14 17 26 19 35 5z m38 3 c-7 -2 -13 -9 -13
-14 0 -6 5 -7 12 -3 7 5 8 3 3 -5 -5 -9 -11 -9 -17 -3 -12 12 -2 32 15 31 9 0
9 -2 0 -6z m492 -2 c3 -5 0 -13 -6 -17 -7 -4 -9 -3 -5 4 3 5 0 13 -6 15 -9 4
-10 6 -1 6 6 1 14 -3 18 -8z m58 -8 c-4 -11 -3 -14 6 -9 8 5 14 0 18 -14 4
-16 8 -18 14 -8 5 7 9 9 9 3 0 -5 -4 -17 -9 -24 -8 -12 -11 -9 -16 12 -4 15
-11 25 -15 22 -11 -7 -23 12 -15 25 10 16 15 12 8 -7z m-750 -5 c14 -12 14
-15 2 -32 -8 -11 -15 -15 -15 -10 0 6 6 16 13 23 10 11 9 13 -6 8 -10 -4 -16
-3 -12 2 3 5 -1 12 -7 14 -7 3 -8 6 -2 6 5 1 18 -5 27 -11z m-34 -24 c6 -15 9
-29 6 -32 -3 -4 -8 4 -12 16 -3 12 -9 22 -14 22 -5 0 -9 5 -9 10 0 19 17 10
29 -16z m449 0 c0 -17 -3 -22 -8 -13 -5 6 -6 18 -3 26 8 19 11 16 11 -13z m97
8 c-3 -3 -11 0 -18 7 -9 10 -8 11 6 5 10 -3 15 -9 12 -12z m-141 -8 c3 -8 2
-12 -4 -9 -6 3 -10 1 -10 -6 0 -7 -2 -10 -5 -7 -5 5 4 38 10 38 2 0 6 -7 9
-16z m67 -28 c-6 -7 -8 -16 -4 -19 3 -4 1 -7 -5 -7 -15 0 -16 17 -2 25 6 4 8
16 5 28 -5 20 -5 20 5 4 8 -13 9 -22 1 -31z m-506 23 c11 -16 1 -19 -13 -3 -7
8 -8 14 -3 14 5 0 13 -5 16 -11z m195 1 c11 -8 8 -9 -12 -4 -18 4 -28 2 -28
-6 0 -6 4 -9 9 -5 15 9 23 -13 11 -32 -9 -15 -10 -14 -4 6 4 15 2 21 -4 17
-13 -8 -26 10 -17 24 8 13 26 13 45 0z m360 -1 c0 -5 6 -7 13 -4 6 4 1 -3 -12
-14 -13 -12 -28 -21 -35 -20 -7 0 -6 2 2 6 6 2 10 9 7 14 -4 5 2 6 12 2 16 -6
16 -5 4 10 -9 11 -10 17 -2 17 6 0 11 -5 11 -11z m65 -7 c-3 -3 -11 0 -18 7
-9 10 -8 11 6 5 10 -3 15 -9 12 -12z m191 3 c17 -16 14 -18 -10 -9 -9 3 -16
10 -16 15 0 13 9 11 26 -6z m-576 -19 c-1 -5 4 -13 12 -18 10 -8 10 -9 -2 -5
-8 2 -14 10 -12 16 1 6 -3 11 -9 11 -7 0 -9 -9 -5 -24 4 -16 0 -28 -12 -37
-14 -11 -15 -11 -4 1 17 20 15 35 -3 20 -10 -9 -15 -9 -15 -1 0 6 4 11 9 11 5
0 11 9 14 21 5 20 30 24 27 5z m225 4 c-3 -5 -1 -10 6 -10 7 0 10 -2 7 -5 -3
-3 -13 -2 -22 1 -14 5 -15 9 -4 15 17 11 20 11 13 -1z m154 -34 c0 -6 -3 -5
-6 2 -4 10 -8 10 -19 1 -8 -6 -14 -15 -14 -19 0 -11 44 -4 48 8 2 7 8 12 14
12 6 0 4 -7 -3 -17 -12 -15 -12 -16 4 -10 12 5 16 3 11 -5 -5 -8 -2 -9 10 -5
11 4 15 3 11 -4 -4 -6 -14 -7 -24 -4 -9 4 -27 9 -40 11 -21 4 -23 3 -11 -11 7
-8 8 -15 2 -15 -5 0 -13 7 -16 16 -3 8 -11 12 -17 8 -8 -4 -7 -9 2 -15 8 -5 9
-9 3 -9 -23 0 -23 15 2 47 25 34 29 58 4 28 -7 -8 -17 -15 -22 -15 -6 0 0 9
13 20 22 17 25 18 37 3 6 -9 12 -22 11 -27z m287 22 c10 -12 13 -18 5 -13 -9
5 -12 3 -9 -6 3 -8 10 -13 15 -12 16 3 7 -39 -10 -49 -11 -6 -17 -5 -17 2 0 5
7 10 16 10 15 0 15 2 0 25 -9 14 -14 30 -11 35 3 5 1 11 -3 14 -5 3 -14 -6
-20 -19 -12 -27 -27 -32 -38 -13 -5 7 -2 9 8 5 10 -3 19 3 27 19 13 29 13 29
37 2z m-105 -3 c5 4 6 -2 2 -11 -5 -13 -3 -15 7 -9 9 5 11 4 6 -3 -4 -7 -2
-12 3 -12 6 0 11 -6 11 -12 0 -7 -12 0 -25 15 -14 15 -25 33 -24 40 0 9 2 8 6
-1 2 -6 9 -10 14 -7z m-776 -4 c-3 -5 5 -17 17 -25 12 -9 18 -16 14 -16 -12 0
-46 31 -46 42 0 4 5 8 11 8 5 0 8 -4 4 -9z m75 -1 c8 -5 12 -11 10 -14 -3 -2
-14 2 -24 10 -22 15 -10 19 14 4z m54 2 c2 -4 -4 -8 -14 -8 -10 0 -16 4 -14 8
3 4 9 8 14 8 5 0 11 -4 14 -8z m286 -2 c18 -12 2 -12 -25 0 -13 6 -15 9 -5 9
8 0 22 -4 30 -9z m-367 -12 c12 -10 14 -17 6 -28 -9 -13 -10 -13 -6 0 2 8 -5
20 -17 27 -12 7 -16 12 -10 13 5 0 18 -6 27 -12z m332 -8 c-3 -5 -11 -10 -16
-10 -6 0 -7 5 -4 10 3 6 11 10 16 10 6 0 7 -4 4 -10z m77 -22 c-9 -9 -15 -9
-24 0 -10 10 -10 15 2 22 9 6 19 5 24 0 7 -7 6 -14 -2 -22z m44 17 c-3 -8 -1
-15 3 -15 5 0 12 6 14 13 4 9 6 9 6 0 1 -17 -19 -27 -31 -15 -6 6 -7 15 -4 21
10 16 19 13 12 -4z m-366 1 c0 -2 -11 -6 -25 -8 -13 -3 -22 -1 -19 3 5 9 44
13 44 5z m270 -6 c0 -5 -5 -10 -11 -10 -5 0 -7 5 -4 10 3 6 8 10 11 10 2 0 4
-4 4 -10z m-240 -21 c0 -12 -27 -12 -35 1 -4 6 1 7 11 3 13 -5 15 -3 9 7 -5 9
-4 11 3 6 7 -4 12 -11 12 -17z m604 -16 c-10 -7 -23 -13 -28 -12 -6 0 -5 3 2
6 6 2 10 9 7 14 -4 5 2 6 12 2 16 -6 17 -5 3 13 -14 18 -14 18 3 5 18 -14 18
-16 1 -28z m94 25 c-3 -7 -14 -14 -26 -14 -20 -2 -20 -1 -2 3 11 2 18 9 15 14
-4 5 -1 9 5 9 7 0 10 -6 8 -12z m66 -4 c3 -8 2 -12 -4 -9 -6 3 -10 10 -10 16
0 14 7 11 14 -7z m-827 -20 c-7 -7 -37 7 -37 17 0 6 9 5 21 -1 11 -7 19 -14
16 -16z m627 14 c-3 -5 -8 -20 -10 -35 -4 -23 -3 -25 11 -13 10 8 15 9 15 1 0
-6 -5 -11 -11 -11 -5 0 -8 -4 -5 -8 7 -12 -12 -38 -21 -29 -4 5 -1 12 6 16 8
6 9 11 3 15 -6 3 -13 2 -17 -4 -3 -5 -11 -10 -18 -10 -6 0 -3 6 6 13 10 6 20
25 23 41 4 26 3 28 -11 16 -9 -7 -15 -8 -15 -2 0 11 16 19 37 19 7 0 10 -4 7
-9z m-679 -16 c-3 -3 -11 0 -18 7 -9 10 -8 11 6 5 10 -3 15 -9 12 -12z m185
-8 c0 -3 -8 -1 -17 5 -13 7 -26 4 -48 -11 l-30 -20 29 26 c23 19 34 22 48 15
10 -5 18 -12 18 -15z m185 16 c-3 -4 -16 -7 -30 -7 -13 0 -23 3 -20 7 3 4 16
8 30 8 13 0 23 -4 20 -8z m72 -21 l2 -24 -8 25 -7 25 -15 -30 c-8 -16 -18 -30
-23 -30 -13 0 -18 43 -6 50 5 3 7 0 4 -8 -3 -8 -1 -18 4 -21 6 -3 13 6 16 20
8 31 30 27 33 -7z m-356 6 c5 4 6 -1 2 -10 -5 -13 -7 -14 -14 -3 -5 7 -8 18
-8 23 0 6 3 4 6 -3 2 -6 9 -10 14 -7z m383 -15 c-6 -6 -10 -3 -10 10 0 13 4
16 10 10 7 -7 7 -13 0 -20z m97 15 c5 4 6 -2 2 -12 -6 -17 -5 -17 14 0 11 9
24 17 29 17 4 0 -1 -7 -13 -15 -13 -9 -20 -22 -17 -30 4 -8 1 -15 -7 -15 -7 0
-9 3 -6 6 3 4 0 16 -8 28 -8 11 -15 25 -14 31 0 5 3 4 6 -3 2 -6 9 -10 14 -7z
m179 -5 c-24 -15 -36 -11 -14 4 10 8 21 12 24 10 2 -3 -2 -9 -10 -14z m-717
-15 c-10 -8 -20 -11 -23 -8 -3 3 1 8 8 10 6 3 10 9 7 14 -4 5 1 6 10 3 14 -6
14 -8 -2 -19z m767 11 c-7 -7 -13 -7 -20 0 -6 6 -3 10 10 10 13 0 16 -4 10
-10z m75 4 c-27 -12 -43 -12 -25 0 8 5 22 9 30 9 10 0 8 -3 -5 -9z m-712 -8
c-8 -5 -6 -13 7 -29 9 -12 20 -20 23 -17 2 3 7 -2 10 -10 6 -16 -10 -33 -20
-22 -4 3 -1 6 4 6 6 0 -1 14 -15 30 -30 34 -44 39 -36 13 5 -15 4 -16 -5 -3
-8 11 -7 18 6 28 9 6 22 12 27 12 7 0 7 -3 -1 -8z m202 -10 c-3 -3 -11 0 -18
7 -9 10 -8 11 6 5 10 -3 15 -9 12 -12z m147 5 c-25 -14 -20 -29 6 -19 14 5 15
4 2 -10 -8 -9 -17 -12 -18 -7 -2 5 -7 7 -12 4 -5 -3 -7 2 -6 11 3 16 24 34 41
33 6 0 0 -5 -13 -12z m130 6 c-6 -2 -10 -9 -7 -14 4 -5 -2 -6 -11 -2 -13 5
-15 3 -9 -7 6 -9 4 -11 -5 -5 -10 6 -9 11 5 22 11 7 24 13 29 12 6 0 5 -3 -2
-6z m-569 -46 c-6 -10 -12 -9 -25 5 -20 20 -10 25 11 6 11 -11 12 -8 7 12 -6
21 -5 22 4 8 6 -10 7 -24 3 -31z m482 14 c2 -11 7 -27 11 -34 5 -9 4 -9 -5 -1
-6 6 -14 24 -17 40 -3 16 -3 26 1 23 3 -4 7 -16 10 -28z m245 -26 c0 -5 -8 2
-18 16 -9 14 -23 24 -30 22 -6 -3 -10 -9 -7 -13 7 -11 -43 -45 -52 -36 -3 3
-1 6 6 6 7 0 9 4 6 10 -4 6 1 7 12 3 16 -6 16 -5 4 10 -8 10 -11 20 -7 24 3 3
6 1 6 -6 0 -9 7 -8 22 4 21 14 24 14 40 -7 10 -13 18 -27 18 -33z m17 41 c-6
-14 10 -36 26 -36 5 0 4 7 -3 15 -7 9 -11 17 -9 20 3 2 10 -5 17 -15 10 -16 9
-21 -9 -31 -11 -6 -23 -8 -27 -5 -3 3 1 6 8 6 9 0 8 5 -4 19 -10 11 -15 25
-11 30 9 16 18 13 12 -3z m103 -40 c0 -5 -9 3 -20 17 -11 14 -20 29 -20 34 1
10 39 -39 40 -51z m-805 10 c0 -9 7 -22 15 -27 12 -9 12 -10 -3 -5 -15 5 -17
2 -12 -13 7 -24 -6 -33 -25 -19 -13 8 -12 9 2 5 15 -5 18 9 8 53 0 3 -7 -6
-15 -20 -16 -29 -20 -19 -4 11 5 11 14 17 20 14 5 -4 9 -2 9 4 0 5 -5 12 -10
14 -6 3 -5 4 2 3 7 -2 13 -10 13 -20z m352 9 c0 -8 -4 -12 -9 -9 -4 3 -8 9 -8
15 0 5 4 9 8 9 5 0 9 -7 9 -15z m-312 -15 c-3 -5 -1 -10 6 -10 7 0 10 -2 7 -5
-3 -3 -13 -2 -22 1 -14 5 -15 9 -4 15 17 11 20 11 13 -1z m383 -15 c-3 -3 -9
2 -12 12 -6 14 -5 15 5 6 7 -7 10 -15 7 -18z m82 15 c0 -5 6 -10 14 -10 18 0
29 -17 21 -30 -5 -8 -11 -8 -19 -1 -7 6 -17 7 -21 3 -5 -4 -5 -1 -1 6 4 7 2
19 -4 27 -9 11 -9 15 -1 15 6 0 11 -4 11 -10z m169 -34 c0 -6 -3 -5 -6 2 -4
10 -8 10 -19 1 -22 -18 -17 -24 21 -25 29 -1 33 1 24 12 -6 8 -7 14 -3 14 15
0 34 -38 28 -55 -5 -11 -2 -14 12 -9 16 5 17 4 3 -5 -10 -7 -15 -21 -13 -38 4
-28 4 -28 -5 -3 -5 14 -10 21 -10 15 -2 -13 -31 25 -31 39 1 6 7 0 15 -14 8
-14 15 -23 15 -20 10 45 7 56 -13 55 -11 -1 -23 -7 -25 -13 -2 -7 -8 -12 -14
-12 -6 0 -6 6 2 15 16 20 1 19 -21 -1 -16 -14 -18 -14 -29 6 -6 12 -9 24 -7
27 3 2 8 -5 12 -16 3 -12 10 -19 15 -16 5 3 7 12 4 19 -3 7 2 19 11 26 8 7 15
17 15 23 0 5 -8 3 -18 -6 -10 -10 -22 -17 -26 -17 -5 0 2 9 15 20 22 17 25 18
37 3 6 -9 12 -22 11 -27z m-191 9 c-3 -3 -9 2 -12 12 -6 14 -5 15 5 6 7 -7 10
-15 7 -18z m-548 11 c0 -2 -7 -7 -16 -10 -8 -3 -12 -2 -9 4 6 10 25 14 25 6z
m11 -28 c1 -7 1 -16 0 -20 0 -5 5 -8 12 -8 19 0 50 -37 42 -50 -3 -5 -11 -8
-16 -5 -5 4 -9 2 -9 -4 0 -18 17 -21 30 -6 7 8 21 15 32 15 11 0 16 5 13 11
-4 6 -14 8 -24 4 -12 -5 -13 -4 -4 6 10 9 15 10 27 0 10 -8 16 -9 21 -1 3 5
11 10 17 10 6 0 -1 -9 -15 -20 -14 -11 -31 -20 -39 -20 -20 0 -37 -20 -31 -36
3 -9 -2 -14 -13 -13 -12 0 -14 3 -6 6 10 4 10 9 -3 23 -17 19 -12 46 6 35 5
-4 9 -2 9 3 0 17 -13 22 -27 10 -10 -8 -17 -8 -26 1 -9 10 -8 11 4 6 10 -4 20
-2 24 4 3 6 0 11 -7 11 -8 0 -23 7 -34 15 -19 15 -19 15 1 8 18 -6 18 -5 6 10
-9 11 -10 17 -2 17 6 0 12 -6 12 -12z m114 -19 c-5 -14 -2 -17 8 -13 8 3 17
14 20 25 5 17 9 19 25 10 11 -6 22 -8 24 -5 3 2 11 -4 19 -13 13 -16 12 -17
-3 -5 -14 11 -19 10 -32 -10 -9 -12 -16 -18 -16 -12 0 5 5 15 11 21 7 7 6 12
-5 16 -10 4 -16 1 -16 -8 0 -18 -36 -39 -44 -26 -4 5 -3 17 0 28 3 11 -4 7
-20 -12 -14 -16 -26 -25 -26 -19 0 17 40 55 51 48 5 -3 7 -14 4 -25z m523 6
c0 -29 -13 -41 -24 -24 -5 8 -3 9 6 4 10 -6 12 -4 7 9 -4 10 -5 22 -1 27 9 15
12 11 12 -16z m157 15 c3 -5 2 -10 -4 -10 -5 0 -13 5 -16 10 -3 6 -2 10 4 10
5 0 13 -4 16 -10z m41 -21 c3 -6 2 -15 -2 -19 -12 -12 -38 5 -30 19 9 14 23
14 32 0z m-630 -21 c5 -7 3 -8 -6 -3 -8 5 -11 3 -8 -6 3 -8 10 -14 17 -14 7 0
18 -8 25 -18 12 -15 15 -16 26 -2 7 9 15 13 17 11 3 -2 -5 -14 -16 -25 -12
-12 -21 -16 -21 -10 0 5 -4 7 -10 4 -6 -4 -7 1 -3 12 3 10 2 15 -2 10 -5 -4
-17 0 -27 10 -13 12 -18 13 -18 3 0 -7 -3 -11 -6 -8 -5 6 13 48 21 48 2 0 7
-5 11 -12z m44 -8 c7 -14 7 -20 0 -20 -5 0 -10 7 -10 16 0 9 -5 12 -12 8 -7
-4 -8 -3 -4 4 10 16 14 15 26 -8z m75 -10 c-3 -5 -12 -10 -18 -10 -7 0 -6 4 3
10 19 12 23 12 15 0z m340 0 c3 -6 -1 -7 -9 -4 -18 7 -21 14 -7 14 6 0 13 -4
16 -10z m35 -10 c-8 -5 -11 -10 -6 -10 5 0 3 -7 -4 -15 -7 -8 -18 -15 -24 -15
-6 0 -3 5 6 11 10 5 15 16 12 24 -4 10 0 15 12 15 16 0 17 -2 4 -10z m122 3
c-6 -2 -10 -9 -7 -14 4 -5 -1 -6 -10 -2 -13 5 -14 7 -3 14 7 5 18 8 23 8 6 0
4 -3 -3 -6z m-858 -40 c-6 -9 -17 -19 -25 -21 -8 -2 -5 2 5 10 13 10 17 21 12
34 -6 15 -5 17 6 6 9 -9 10 -17 2 -29z m56 -17 c0 -5 -9 3 -20 17 -11 14 -20
29 -20 34 1 10 39 -39 40 -51z m115 29 c-16 -14 -39 -24 -50 -24 -19 2 -18 2
1 6 12 2 30 13 40 23 11 10 24 19 29 19 6 0 -3 -11 -20 -24z m225 0 c5 -14 15
-25 21 -25 8 0 7 6 -2 18 -13 15 -12 16 4 3 12 -9 15 -17 8 -24 -12 -12 -41 9
-41 30 0 11 -5 11 -22 3 -22 -11 -22 -10 -4 4 25 20 25 20 36 -9z m55 -2 c13
-16 25 -36 25 -45 0 -10 4 -18 9 -18 5 0 11 8 14 18 3 13 4 12 3 -3 -1 -29
-29 -25 -36 5 -4 17 -8 21 -14 12 -4 -6 -4 -18 0 -24 6 -10 4 -10 -7 0 -10 9
-10 15 -1 24 9 9 7 17 -10 35 -12 13 -18 23 -14 23 4 0 18 -12 31 -27z m339
-15 c6 -4 7 -10 4 -13 -4 -4 -12 2 -19 13 l-13 21 -10 -21 c-12 -24 -41 -39
-33 -17 2 8 9 13 15 12 5 -1 13 10 17 25 6 25 7 26 17 7 6 -11 16 -23 22 -27z
m-443 2 c5 0 9 -5 9 -10 0 -6 -7 -6 -19 2 -12 7 -17 18 -13 27 6 14 7 14 10
-1 2 -10 8 -18 13 -18z m143 1 c-2 -3 -12 3 -22 13 -16 17 -16 18 5 5 12 -7
20 -15 17 -18z m-259 9 c-3 -5 -2 -10 2 -10 5 0 18 -7 29 -15 17 -14 15 -14
-13 0 -32 15 -44 35 -22 35 5 0 7 -4 4 -10z m300 -9 c3 -5 0 -13 -6 -17 -7 -4
-9 -3 -5 4 3 5 0 13 -6 15 -9 4 -10 6 -1 6 6 1 14 -3 18 -8z m-485 -45 c0 -6
-4 -5 -9 2 -6 11 -14 6 -31 -18 -22 -31 -22 -32 -2 -26 11 4 23 2 26 -3 5 -8
-30 -9 -53 -2 -2 0 9 17 24 37 26 34 31 60 5 29 -7 -8 -17 -15 -22 -15 -6 0 0
9 13 20 22 17 25 18 37 3 6 -9 12 -22 12 -27z m146 32 c5 -8 2 -9 -9 -5 -10 3
-17 2 -17 -2 0 -5 6 -12 13 -14 9 -4 9 -6 0 -6 -15 -1 -26 16 -18 29 8 13 22
13 31 -2z m124 -9 c0 -5 -11 -15 -25 -21 l-25 -11 20 -34 c11 -19 15 -31 10
-28 -6 3 -17 20 -25 36 -15 28 -15 30 9 40 16 8 22 17 19 27 -4 10 -2 13 5 8
7 -4 12 -12 12 -17z m-89 -4 c5 4 6 -1 2 -10 -5 -13 -7 -14 -14 -3 -5 7 -8 18
-8 23 0 6 3 4 6 -3 2 -6 9 -10 14 -7z m338 12 c-2 -1 -15 -11 -29 -22 l-25
-20 19 23 c11 12 24 22 29 22 6 0 8 -1 6 -3z m-429 -21 c-7 -7 -13 -7 -20 0
-6 6 -3 10 10 10 13 0 16 -4 10 -10z m280 -6 c14 -11 21 -20 17 -20 -5 0 -20
9 -34 20 -14 11 -22 20 -17 20 5 0 20 -9 34 -20z m365 10 c3 -5 0 -7 -8 -4 -8
3 -17 1 -20 -3 -3 -5 8 -14 24 -20 28 -11 30 -10 24 10 -5 20 -5 20 6 4 16
-27 -1 -36 -39 -20 -28 11 -32 16 -22 28 14 17 26 19 35 5z m55 0 c0 -5 -4
-10 -10 -10 -5 0 -10 5 -10 10 0 6 5 10 10 10 6 0 10 -4 10 -10z m-457 -12
c15 -12 14 -15 -3 -37 -11 -13 -20 -19 -20 -13 0 5 7 15 15 22 31 26 5 21 -29
-5 -34 -26 -35 -26 -46 -6 -7 14 -7 21 0 21 5 0 10 -7 10 -16 0 -13 6 -11 31
7 23 16 28 24 17 30 -7 5 -8 9 -2 9 5 0 18 -6 27 -12z m-408 -18 c0 -7 -6 -14
-13 -16 -7 -1 -8 0 -2 3 5 2 10 9 10 14 0 6 -4 8 -9 4 -5 -3 -12 -1 -15 4 -4
5 2 8 11 7 10 -2 18 -9 18 -16z m96 6 c-9 -10 -9 -16 -1 -21 14 -9 40 1 40 16
0 8 -6 7 -17 -2 -17 -13 -17 -12 -4 4 14 18 16 18 28 1 7 -10 13 -22 13 -27 0
-4 5 -5 12 -1 7 5 8 3 3 -6 -6 -10 -10 -10 -20 3 -8 12 -15 13 -23 5 -6 -6
-18 -7 -29 -3 -10 4 -24 9 -31 11 -8 1 -17 6 -20 10 -4 4 1 4 11 1 11 -4 20
-1 23 8 4 8 11 15 16 15 6 0 6 -6 -1 -14z m81 -8 c-7 -7 -12 -8 -12 -2 0 14
12 26 19 19 2 -3 -1 -11 -7 -17z m62 6 c3 -8 2 -12 -4 -9 -6 3 -10 10 -10 16
0 14 7 11 14 -7z m126 6 c0 -5 -4 -10 -10 -10 -5 0 -10 5 -10 10 0 6 5 10 10
10 6 0 10 -4 10 -10z m235 0 c4 -6 -1 -7 -12 -3 -16 6 -16 5 -4 -10 7 -9 9
-17 3 -17 -12 0 -23 26 -15 34 9 9 21 7 28 -4z m179 -29 c-3 -3 -15 6 -27 18
l-22 24 27 -19 c14 -10 24 -21 22 -23z m106 25 c0 -2 -7 -7 -16 -10 -8 -3 -12
-2 -9 4 6 10 25 14 25 6z m-929 -33 c-12 -20 -14 -14 -5 12 4 9 9 14 11 11 3
-2 0 -13 -6 -23z m549 16 c13 -9 12 -10 -2 -5 -10 3 -22 -2 -27 -12 -12 -19
-14 -12 -5 12 7 19 14 20 34 5z m54 -5 c9 -24 2 -26 -12 -4 -7 11 -8 20 -3 20
5 0 12 -7 15 -16z m-117 -2 c-16 -7 -16 -9 3 -25 23 -19 19 -37 -8 -37 -15 -1
-15 -2 2 -15 18 -13 18 -14 -2 -12 -11 0 -18 5 -16 9 3 5 -9 6 -27 3 -34 -6
-37 3 -3 9 11 3 29 8 42 13 l23 9 -22 19 c-20 18 -22 18 -16 2 4 -11 3 -16 -3
-12 -6 3 -10 1 -10 -6 0 -7 -3 -9 -6 -6 -11 11 25 57 44 56 16 0 16 -1 -1 -7z
m322 -26 c-3 -3 -11 5 -18 17 -13 21 -12 21 5 5 10 -10 16 -20 13 -22z m-209
-20 c-1 -6 -6 -2 -13 10 -7 12 -19 19 -27 17 -13 -4 -13 -3 0 6 11 8 18 6 28
-6 6 -9 12 -22 12 -27z m-594 -12 c-9 -8 -11 -9 -6 -2 6 7 11 21 11 33 1 18 2
18 6 1 3 -10 -2 -25 -11 -32z m38 16 c-6 -6 -10 -3 -10 10 0 13 4 16 10 10 7
-7 7 -13 0 -20z m97 15 c5 4 6 -2 2 -12 -6 -17 -5 -17 14 0 11 9 23 17 28 17
5 0 0 -6 -11 -14 -21 -16 -25 -37 -10 -48 6 -4 7 -10 3 -14 -8 -9 -18 -1 -21
18 -1 7 -7 23 -14 35 -7 12 -12 25 -11 30 0 4 3 2 6 -5 2 -6 9 -10 14 -7z
m403 -1 c3 -8 2 -12 -4 -9 -6 3 -10 1 -10 -6 0 -7 -2 -10 -5 -7 -5 5 4 38 10
38 2 0 6 -7 9 -16z m101 6 c-3 -5 -12 -10 -18 -10 -7 0 -6 4 3 10 19 12 23 12
15 0z m-232 -7 c-7 -2 -13 -9 -13 -14 0 -4 7 -6 15 -3 21 9 19 -3 -4 -15 -15
-9 -18 -7 -16 12 3 28 3 27 18 26 10 0 10 -2 0 -6z m377 -3 c0 -5 -5 -10 -11
-10 -5 0 -7 5 -4 10 3 6 8 10 11 10 2 0 4 -4 4 -10z m-800 -15 c-7 -9 -15 -13
-19 -10 -3 3 1 10 9 15 21 14 24 12 10 -5z m92 2 c-12 -7 -19 -17 -15 -22 4
-4 2 -5 -6 0 -12 7 -11 10 4 22 11 7 24 13 29 13 6 -1 1 -6 -12 -13z m488 3
c0 -5 -10 -15 -22 -21 l-23 -12 20 21 c23 24 25 25 25 12z m-446 -16 c3 -8 2
-12 -4 -9 -6 3 -10 10 -10 16 0 14 7 11 14 -7z m86 5 c0 -5 5 -7 12 -3 7 5 8
3 3 -5 -5 -9 -10 -10 -18 -2 -17 17 -31 13 -17 -4 7 -9 8 -15 2 -15 -12 0 -23
26 -15 34 10 10 33 7 33 -5z m420 7 c0 -2 -7 -9 -15 -16 -13 -11 -14 -10 -9 4
5 14 24 23 24 12z m-680 -36 c-6 -12 -14 -20 -17 -17 -2 3 1 14 8 26 17 26 24
19 9 -9z m847 -2 c-3 -7 -5 -2 -5 12 0 14 2 19 5 13 2 -7 2 -19 0 -25z m-880
0 c-3 -8 -6 -5 -6 6 -1 11 2 17 5 13 3 -3 4 -12 1 -19z m127 14 c2 -4 0 -14
-6 -22 -8 -12 -9 -12 -4 3 7 21 -2 21 -28 2 -20 -15 -36 -12 -36 8 0 9 2 9 8
0 6 -10 12 -10 28 2 22 17 31 18 38 7z m58 -12 c-2 -8 3 -10 13 -6 9 3 13 2
10 -4 -3 -6 -1 -10 6 -10 7 0 9 -3 6 -6 -8 -9 -57 23 -57 37 0 6 6 9 13 6 6
-2 11 -10 9 -17z m431 -1 c5 -3 2 -9 -5 -12 -9 -3 -14 3 -15 15 -1 11 1 16 5
12 4 -5 11 -12 15 -15z m42 -7 c-3 -3 -11 0 -18 7 -9 10 -8 11 6 5 10 -3 15
-9 12 -12z m-471 -31 c-2 -2 -14 4 -26 15 -20 18 -21 18 -15 1 4 -11 3 -16 -3
-12 -6 3 -10 1 -10 -6 0 -7 -3 -10 -6 -7 -3 4 -1 16 6 27 10 21 12 21 34 4 13
-10 22 -20 20 -22z m132 24 c9 -8 11 -15 6 -15 -5 0 -15 7 -22 15 -7 8 -9 15
-6 15 4 0 14 -7 22 -15z m-36 -30 c-9 -11 -16 -13 -23 -6 -7 7 -6 15 3 26 9
11 16 13 23 6 7 -7 6 -15 -3 -26z m570 25 c-8 -5 -19 -10 -25 -10 -5 0 -3 5 5
10 8 5 20 10 25 10 6 0 3 -5 -5 -10z m-860 -10 c0 -5 -4 -10 -10 -10 -5 0 -10
5 -10 10 0 6 5 10 10 10 6 0 10 -4 10 -10z m64 2 c2 -4 -4 -8 -14 -8 -10 0
-16 4 -14 8 3 4 9 8 14 8 5 0 11 -4 14 -8z m34 -6 c-7 -8 -15 -12 -17 -11 -5
6 10 25 20 25 5 0 4 -6 -3 -14z m-94 -31 c-18 -27 -18 -28 3 -21 12 4 24 2 27
-3 7 -11 -31 -51 -48 -51 -6 0 3 12 19 26 19 16 23 23 12 20 -31 -10 -38 4
-20 34 9 16 19 28 21 26 2 -3 -4 -16 -14 -31z m351 25 c-3 -5 -1 -10 6 -10 7
0 10 -3 6 -6 -9 -9 -28 6 -22 17 4 5 8 9 11 9 3 0 2 -4 -1 -10z m-378 -17 c2
-6 -1 -14 -7 -18 -8 -5 -8 -11 1 -21 10 -12 9 -17 -1 -27 -10 -9 -11 -9 -6 1
4 6 4 17 0 24 -4 7 -15 -6 -26 -33 -13 -30 -17 -35 -13 -15 6 26 4 28 -9 17
-11 -9 -16 -10 -16 -2 0 6 5 11 11 11 6 0 8 8 5 18 -5 14 -4 14 9 -2 12 -16
15 -17 15 -4 0 8 7 21 15 28 16 13 21 35 6 25 -5 -3 -12 -1 -15 4 -4 5 2 8 11
7 9 -2 19 -8 20 -13z m133 2 c-7 -8 -17 -15 -22 -15 -11 0 14 29 26 30 5 0 3
-7 -4 -15z m150 -17 c0 -12 -10 -9 -26 6 -20 21 -17 28 6 14 11 -7 20 -16 20
-20z m63 26 c-7 -3 -9 -13 -6 -22 4 -15 3 -15 -6 -2 -9 13 -11 12 -12 -5 0
-11 -3 -14 -6 -7 -6 15 14 42 31 41 7 0 7 -2 -1 -5z m-253 -8 c0 -2 -11 -6
-25 -8 -13 -3 -22 -1 -19 3 5 9 44 13 44 5z m115 -13 c9 -26 8 -28 -20 -30
-15 -1 -23 2 -19 8 3 5 15 7 27 3 19 -6 20 -5 8 9 -9 12 -18 14 -30 8 -9 -5
-20 -10 -26 -11 -5 -2 -15 -5 -22 -7 -7 -3 -18 -3 -25 0 -7 3 -3 6 9 6 12 1
25 6 28 11 4 6 10 8 14 6 4 -3 13 -1 21 5 21 13 27 11 35 -8z m40 -12 c-6 -5
-25 10 -25 20 0 5 6 4 14 -3 8 -7 12 -15 11 -17z m590 -10 c-6 -5 -25 10 -25
20 0 5 6 4 14 -3 8 -7 12 -15 11 -17z m-539 -6 c-3 -8 -2 -15 2 -15 5 0 16 -6
27 -13 14 -11 15 -16 5 -22 -8 -5 -11 -4 -7 2 4 6 -5 15 -18 21 -25 12 -31 23
-18 35 11 12 15 8 9 -8z m61 4 c-15 -9 -16 -13 -5 -26 12 -15 11 -15 -9 -3
-20 13 -20 15 -5 27 9 7 22 12 27 12 6 0 2 -4 -8 -10z m65 2 c-8 -4 -14 -12
-14 -17 -2 -28 -23 -54 -40 -48 -14 4 -17 1 -12 -13 5 -14 4 -15 -4 -3 -13 18
-5 33 14 26 12 -5 35 22 40 47 1 4 2 9 3 12 0 3 7 5 14 5 9 0 9 -2 -1 -9z
m378 -1 c0 -5 -5 -10 -11 -10 -5 0 -7 5 -4 10 3 6 8 10 11 10 2 0 4 -4 4 -10z
m-709 -15 c5 4 6 -1 2 -10 -5 -13 -7 -14 -14 -3 -5 7 -8 18 -8 23 0 6 3 4 6
-3 2 -6 9 -10 14 -7z m45 -20 c-9 -14 -23 -25 -32 -25 -8 0 -12 -4 -9 -10 3
-5 -5 -15 -19 -21 -16 -8 -22 -17 -19 -27 4 -10 2 -13 -5 -8 -19 11 -14 26 13
38 13 6 22 15 19 20 -3 4 -10 6 -15 3 -5 -4 -17 -1 -26 5 -16 9 -15 10 4 5 19
-5 22 -3 17 12 -5 16 -4 16 5 1 7 -10 19 -14 32 -11 16 5 18 8 7 15 -9 7 -8 8
6 4 14 -5 17 -2 12 9 -3 9 -2 13 4 10 6 -3 10 -1 10 6 0 7 3 9 6 6 4 -4 -1
-18 -10 -32z m100 15 c0 -12 -4 -16 -9 -11 -5 5 -6 14 -3 20 10 15 12 14 12
-9z m35 -15 c5 4 9 1 9 -5 0 -20 -25 -4 -26 16 -1 16 0 16 3 1 3 -9 9 -15 14
-12z m111 10 c-8 -16 -9 -16 -15 -1 -4 10 -3 15 3 11 6 -3 10 -1 10 6 0 7 3
10 6 6 3 -3 2 -13 -4 -22z m49 -8 c-10 -9 -11 -8 -5 6 3 10 9 15 12 12 3 -3 0
-11 -7 -18z m339 19 c0 -2 -7 -7 -16 -10 -8 -3 -12 -2 -9 4 6 10 25 14 25 6z
m-567 -18 c15 -12 14 -15 -5 -38 -14 -16 -19 -19 -15 -7 8 21 -6 22 -23 2 -10
-12 -10 -15 0 -15 8 0 11 -3 8 -6 -4 -3 -16 -1 -27 6 -21 10 -21 12 -4 34 10
13 20 22 22 20 2 -2 -4 -13 -14 -24 -10 -11 -13 -20 -8 -20 6 0 16 7 23 15 7
9 19 14 26 11 23 -9 25 8 2 21 -13 7 -18 12 -12 13 5 0 18 -6 27 -12z m271 -3
c-10 -8 -23 -14 -29 -14 -5 0 -1 6 9 14 11 8 24 15 30 15 5 0 1 -7 -10 -15z
m39 0 c-3 -9 -8 -14 -10 -11 -3 3 -2 9 2 15 9 16 15 13 8 -4z m223 -12 c-3 -3
-12 -1 -19 5 -8 7 -18 8 -22 4 -5 -4 -5 -1 -1 6 5 9 12 9 27 1 12 -6 18 -13
15 -16z m-828 -8 c-3 -3 -9 2 -12 12 -6 14 -5 15 5 6 7 -7 10 -15 7 -18z m656
-1 c3 -8 1 -14 -3 -14 -5 0 -12 8 -15 17 -6 15 -8 15 -16 3 -6 -8 -10 -10 -10
-4 0 27 34 25 44 -2z m116 16 c0 -5 -4 -10 -10 -10 -5 0 -10 5 -10 10 0 6 5
10 10 10 6 0 10 -4 10 -10z m95 0 c-3 -5 -11 -10 -16 -10 -6 0 -7 5 -4 10 3 6
11 10 16 10 6 0 7 -4 4 -10z m-775 -20 c8 -5 11 -10 5 -10 -5 0 -17 5 -25 10
-8 5 -10 10 -5 10 6 0 17 -5 25 -10z m256 -2 c4 -6 3 -8 -4 -4 -5 3 -13 0 -15
-6 -3 -8 -6 -6 -6 5 -1 19 14 23 25 5z m54 3 c0 -5 -6 -13 -12 -18 -18 -14
-59 -23 -52 -12 3 5 14 9 25 9 10 0 18 3 18 8 -3 14 1 22 11 22 6 0 10 -4 10
-9z m130 -1 c8 -5 11 -10 5 -10 -5 0 -17 5 -25 10 -8 5 -10 10 -5 10 6 0 17
-5 25 -10z m60 0 c8 -5 11 -10 5 -10 -5 0 -17 5 -25 10 -8 5 -10 10 -5 10 6 0
17 -5 25 -10z m140 0 c-8 -5 -19 -10 -25 -10 -5 0 -3 5 5 10 8 5 20 10 25 10
6 0 3 -5 -5 -10z m60 0 c-8 -5 -19 -10 -25 -10 -5 0 -3 5 5 10 8 5 20 10 25
10 6 0 3 -5 -5 -10z m55 -9 c3 -5 0 -13 -6 -17 -7 -4 -9 -3 -5 4 3 5 0 13 -6
15 -9 4 -10 6 -1 6 6 1 14 -3 18 -8z m-775 -12 c0 -5 4 -8 9 -5 14 9 36 -23
24 -35 -7 -7 -17 -1 -32 20 -13 17 -18 31 -12 31 6 0 11 -5 11 -11z m60 1 c0
-5 -4 -10 -10 -10 -5 0 -10 5 -10 10 0 6 5 10 10 10 6 0 10 -4 10 -10z m177
-4 c-3 -8 5 -18 19 -25 14 -6 23 -15 19 -20 -3 -5 3 -11 12 -14 14 -3 14 -4
-2 -3 -11 1 -18 5 -15 9 3 5 -7 15 -22 23 -28 15 -34 25 -21 37 11 11 15 8 10
-7z m113 -20 c-7 -9 -16 -13 -21 -10 -5 3 -9 0 -9 -5 0 -6 -5 -11 -11 -11 -6
0 -1 14 12 31 15 21 25 27 32 20 7 -7 6 -15 -3 -25z m80 21 c-9 -7 -15 -18
-14 -24 1 -7 2 -18 3 -24 0 -5 5 -7 11 -4 6 4 7 -1 3 -11 -4 -11 -8 -13 -11
-6 -2 7 -8 10 -13 7 -5 -4 -6 2 -2 11 4 11 3 15 -5 10 -23 -14 -24 17 -1 35
26 20 54 26 29 6z m70 2 c0 -5 -5 -7 -12 -3 -7 5 -9 2 -5 -9 9 -23 -17 -41
-40 -27 -15 9 -14 10 7 4 14 -3 22 -3 18 1 -9 9 9 45 22 45 6 0 10 -5 10 -11z
m50 -4 c-7 -8 -16 -13 -20 -10 -4 3 -11 -2 -14 -11 -4 -11 -1 -14 13 -9 21 6
46 -18 38 -37 -3 -7 -6 -4 -6 7 -1 17 -3 18 -12 5 -9 -12 -10 -12 -5 4 5 14 2
17 -10 12 -24 -9 -35 3 -24 25 6 11 15 17 21 14 5 -4 9 -1 9 4 0 6 5 11 11 11
8 0 8 -5 -1 -15z m70 5 c0 -5 -4 -10 -10 -10 -5 0 -10 5 -10 10 0 6 5 10 10
10 6 0 10 -4 10 -10z m39 -21 c-15 -21 -25 -27 -32 -20 -12 12 10 44 24 35 5
-3 9 0 9 5 0 6 5 11 11 11 6 0 1 -14 -12 -31z m-65 -19 c-14 -14 -39 14 -29
31 5 8 12 6 23 -5 11 -11 13 -19 6 -26z m120 -2 c-3 -5 -14 -6 -25 -3 -15 5
-18 3 -13 -12 5 -15 4 -16 -5 -3 -9 13 -11 12 -12 -5 0 -11 -3 -14 -6 -7 -8
19 17 43 38 37 14 -5 17 -2 13 9 -3 9 -11 13 -17 9 -6 -4 -7 -1 -2 7 6 10 11
9 21 -5 7 -10 11 -22 8 -27z m-564 21 c11 -8 9 -9 -10 -3 l-25 7 20 -22 c11
-13 21 -18 23 -12 2 5 12 1 23 -10 24 -24 25 -38 0 -15 -16 15 -19 15 -24 2
-4 -10 -13 -13 -24 -9 -16 6 -16 5 -4 -10 11 -14 17 -15 28 -6 11 9 17 9 26 0
9 -10 8 -11 -4 -6 -10 4 -20 2 -23 -3 -3 -6 6 -13 21 -17 21 -5 24 -8 12 -16
-7 -5 -18 -9 -24 -9 -5 0 -3 5 5 10 13 8 13 10 -1 10 -10 0 -31 16 -47 34 -26
30 -32 33 -43 20 -6 -8 -14 -12 -16 -10 -3 2 5 14 16 25 12 12 21 16 21 10 0
-5 4 -7 10 -4 5 3 7 0 5 -7 -4 -9 2 -14 15 -14 27 0 25 10 -5 34 -17 14 -21
22 -13 25 19 8 22 8 38 -4z m66 -26 c-5 -11 0 -13 17 -8 19 5 20 4 4 -5 -22
-14 -38 -5 -30 18 6 15 5 15 -10 3 -10 -7 -17 -9 -17 -3 0 12 21 21 33 15 5
-3 6 -12 3 -20z m155 -16 c-5 -5 -17 -4 -28 2 -16 11 -16 11 4 6 19 -5 22 -3
17 12 -5 15 -4 15 5 3 6 -8 6 -19 2 -23z m-316 3 c-3 -5 -11 -10 -16 -10 -6 0
-7 5 -4 10 3 6 11 10 16 10 6 0 7 -4 4 -10z m445 0 c0 -5 -4 -10 -10 -10 -5 0
-10 5 -10 10 0 6 5 10 10 10 6 0 10 -4 10 -10z m120 0 c0 -5 -4 -10 -10 -10
-5 0 -10 5 -10 10 0 6 5 10 10 10 6 0 10 -4 10 -10z m-349 -31 c6 -13 7 -19 1
-15 -6 3 -13 0 -16 -6 -3 -7 -3 -2 0 11 4 16 3 21 -5 17 -6 -4 -11 -2 -11 3 0
19 19 12 31 -10z m75 4 c4 -10 6 -21 6 -25 -3 -13 16 -9 21 5 4 9 6 9 6 0 1
-6 -4 -15 -9 -18 -13 -8 -42 14 -34 26 3 5 0 9 -5 9 -6 0 -11 5 -11 10 0 16
17 11 26 -7z m86 -8 c30 1 52 15 23 15 -10 0 -16 3 -12 6 12 12 37 -5 31 -21
-4 -10 -13 -13 -26 -9 -13 4 -18 2 -14 -4 14 -23 -18 -24 -35 -1 -20 26 -26
53 -6 29 7 -9 24 -15 39 -15z m110 12 c15 -12 15 -14 -5 -27 -20 -12 -21 -12
-9 3 11 13 10 17 -5 26 -10 6 -13 10 -8 10 6 0 18 -5 27 -12z m58 -8 c0 -5
-11 -14 -25 -21 -27 -12 -25 -31 2 -21 15 6 16 5 3 -9 -8 -9 -16 -12 -18 -7
-2 5 -14 2 -26 -7 -22 -14 -24 -13 -40 10 -9 14 -16 29 -16 33 0 4 5 0 11 -9
5 -9 15 -16 22 -14 6 1 9 1 5 -1 -19 -11 -6 -23 12 -13 11 6 18 15 15 20 -3 6
5 15 19 21 16 8 22 17 19 27 -4 10 -2 13 5 8 7 -4 12 -12 12 -17z m37 7 c-3
-8 -1 -17 6 -20 9 -3 9 -5 0 -5 -15 -1 -26 16 -18 29 9 15 18 12 12 -4z m48
-6 c-10 -11 -21 -18 -23 -15 -3 3 3 12 14 20 27 20 30 18 9 -5z m-376 -9 c12
-22 5 -31 -23 -30 -19 1 -18 2 3 8 23 6 23 7 7 24 -10 9 -13 17 -7 17 6 0 15
-8 20 -19z m202 4 c5 4 6 -1 2 -10 -5 -13 -7 -14 -14 -3 -5 7 -8 18 -8 23 0 6
3 4 6 -3 2 -6 9 -10 14 -7z m-402 -9 c9 -10 9 -16 1 -21 -13 -8 -42 14 -34 26
8 13 20 11 33 -5z m124 -1 c8 -18 -11 -31 -25 -17 -11 11 -3 32 12 32 4 0 10
-7 13 -15z m-182 -18 c-10 -9 -11 -8 -5 6 3 10 9 15 12 12 3 -3 0 -11 -7 -18z
m569 3 c0 -5 -4 -10 -10 -10 -5 0 -10 5 -10 10 0 6 5 10 10 10 6 0 10 -4 10
-10z m-535 -20 c3 -6 -1 -7 -9 -4 -18 7 -21 14 -7 14 6 0 13 -4 16 -10z m45 0
c-8 -5 -19 -10 -25 -10 -5 0 -3 5 5 10 8 5 20 10 25 10 6 0 3 -5 -5 -10z m120
0 c-8 -5 -19 -10 -25 -10 -5 0 -3 5 5 10 8 5 20 10 25 10 6 0 3 -5 -5 -10z
m80 0 c-8 -5 -19 -10 -25 -10 -5 0 -3 5 5 10 8 5 20 10 25 10 6 0 3 -5 -5 -10z
m60 0 c-8 -5 -19 -10 -25 -10 -5 0 -3 5 5 10 8 5 20 10 25 10 6 0 3 -5 -5 -10z
m86 -1 c3 -6 1 -16 -6 -22 -10 -9 -12 -8 -6 7 5 16 2 17 -21 12 -21 -5 -24 -4
-13 4 20 13 37 13 46 -1z m-323 -16 c4 -3 0 -17 -8 -30 -9 -13 -11 -23 -6 -23
5 0 11 -7 15 -15 8 -21 3 -19 -25 12 -13 14 -19 23 -12 19 7 -4 17 2 23 14 7
13 7 20 0 20 -5 0 -10 -5 -10 -12 0 -6 -3 -9 -6 -5 -7 7 4 27 15 27 4 0 11 -3
14 -7z m62 -4 c11 -16 1 -19 -13 -3 -7 8 -8 14 -3 14 5 0 13 -5 16 -11z m61
-1 c5 -7 2 -9 -8 -5 -10 3 -19 -3 -27 -20 -7 -14 -14 -23 -17 -20 -7 7 25 57
37 57 4 0 11 -5 15 -12z m77 -7 c-2 -6 6 -11 17 -11 11 0 19 5 18 11 -2 6 2
13 8 16 12 4 49 -45 40 -54 -3 -3 -11 6 -17 21 -12 26 -31 36 -26 14 1 -8 -10
-13 -30 -14 -18 -1 -39 -7 -48 -14 -10 -8 -15 -9 -15 -1 0 6 4 11 9 11 5 0 11
9 14 21 6 21 34 21 30 0z m242 9 c3 -5 1 -10 -4 -10 -6 0 -11 5 -11 10 0 6 2
10 4 10 3 0 8 -4 11 -10z m-403 -14 c6 4 5 -2 -1 -15 -12 -22 -31 -29 -31 -10
0 5 5 7 11 3 8 -4 9 1 5 17 -3 13 -3 18 0 11 3 -6 10 -9 16 -6z m103 -5 c-3
-6 -11 -11 -16 -11 -5 0 -4 6 3 14 14 16 24 13 13 -3z m165 -16 c0 -5 -5 -3
-10 5 -5 8 -10 20 -10 25 0 6 5 3 10 -5 5 -8 10 -19 10 -25z m44 18 c11 -11
48 -14 41 -3 -3 5 -1 10 5 10 17 0 6 -25 -11 -26 -30 -4 -59 -17 -53 -25 3 -5
-3 -6 -13 -2 -16 6 -16 5 -4 -10 9 -11 10 -17 2 -17 -6 0 -11 5 -11 11 0 5 -4
7 -10 4 -5 -3 -10 -2 -10 4 0 5 16 15 34 22 19 7 32 17 29 21 -3 5 -12 7 -20
4 -8 -3 -11 -1 -8 4 7 12 19 13 29 3z m-233 -34 c6 -12 7 -19 1 -15 -17 10
-21 -21 -6 -43 9 -12 11 -21 5 -21 -6 0 -11 5 -11 11 0 5 -4 8 -9 5 -12 -8
-34 21 -26 34 3 6 11 7 17 4 8 -5 9 -1 5 10 -5 11 -3 15 5 10 8 -5 9 -2 5 9
-9 24 0 21 14 -4z m129 2 c-11 -22 -13 -38 -4 -28 9 8 44 -11 44 -23 0 -6 -5
-10 -11 -10 -5 0 -7 5 -3 12 5 7 2 9 -9 5 -24 -9 -41 17 -27 42 6 12 13 21 16
21 2 0 0 -9 -6 -19z m-50 -36 c-7 -8 -17 -12 -22 -8 -6 3 -9 0 -6 -8 3 -8 11
-14 19 -14 8 0 14 -10 13 -23 0 -16 4 -21 13 -18 8 3 12 2 8 -3 -3 -5 1 -12 7
-14 8 -4 9 -6 2 -6 -7 -1 -22 8 -35 20 -13 11 -18 18 -11 14 7 -4 12 0 12 10
0 9 -3 14 -8 11 -4 -2 -16 2 -27 10 -19 14 -19 14 0 28 11 8 24 12 28 9 5 -3
6 5 3 18 -6 21 -5 22 4 6 9 -14 9 -22 0 -32z m-136 27 c2 -4 0 -14 -6 -22 -8
-12 -9 -11 -4 3 5 15 2 17 -17 12 -17 -5 -19 -4 -7 4 18 13 27 14 34 3z m81
-21 c-3 -6 -11 -11 -16 -11 -5 0 -4 6 3 14 14 16 24 13 13 -3z m195 -38 c-11
-17 -11 -17 -6 0 3 10 6 24 7 30 0 9 2 9 5 0 3 -7 0 -20 -6 -30z m-110 17 c0
-5 -4 -10 -10 -10 -5 0 -10 5 -10 10 0 6 5 10 10 10 6 0 10 -4 10 -10z m-162
-25 c-3 -3 -9 2 -12 12 -6 14 -5 15 5 6 7 -7 10 -15 7 -18z m72 -32 c-11 -17
-11 -17 -6 0 3 10 6 24 7 30 0 9 2 9 5 0 3 -7 0 -20 -6 -30z m176 19 c1 -7 0
-8 -3 -2 -2 5 -9 8 -14 4 -5 -3 -9 0 -9 6 0 15 23 7 26 -8z m-216 4 c0 -3 -4
-8 -10 -11 -5 -3 -10 -1 -10 4 0 6 5 11 10 11 6 0 10 -2 10 -4z m86 -38 l19
-23 -22 19 c-16 13 -23 15 -23 6 0 -7 -3 -11 -6 -7 -5 5 3 27 10 27 2 0 11
-10 22 -22z"/>
<path d="M1745 1970 c-3 -5 -1 -10 4 -10 6 0 11 5 11 10 0 6 -2 10 -4 10 -3 0
-8 -4 -11 -10z"/>
<path d="M1647 1953 c-4 -3 -7 -11 -7 -17 0 -6 5 -5 12 2 6 6 9 14 7 17 -3 3
-9 2 -12 -2z"/>
<path d="M1725 1850 c3 -5 8 -10 11 -10 2 0 4 5 4 10 0 6 -5 10 -11 10 -5 0
-7 -4 -4 -10z"/>
<path d="M1725 1790 c-3 -5 -1 -10 4 -10 6 0 11 5 11 10 0 6 -2 10 -4 10 -3 0
-8 -4 -11 -10z"/>
<path d="M1780 1871 c0 -5 5 -13 10 -16 6 -3 10 -2 10 4 0 5 -4 13 -10 16 -5
3 -10 2 -10 -4z"/>
<path d="M1545 1790 c3 -5 11 -10 16 -10 6 0 7 5 4 10 -3 6 -11 10 -16 10 -6
0 -7 -4 -4 -10z"/>
<path d="M1880 1789 c0 -5 5 -7 10 -4 6 3 10 8 10 11 0 2 -4 4 -10 4 -5 0 -10
-5 -10 -11z"/>
<path d="M1860 1710 c0 -5 5 -10 11 -10 5 0 7 5 4 10 -3 6 -8 10 -11 10 -2 0
-4 -4 -4 -10z"/>
<path d="M1560 1701 c0 -5 5 -13 10 -16 6 -3 10 -2 10 4 0 5 -4 13 -10 16 -5
3 -10 2 -10 -4z"/>
<path d="M2045 1510 c-3 -5 -1 -10 4 -10 6 0 11 5 11 10 0 6 -2 10 -4 10 -3 0
-8 -4 -11 -10z"/>
<path d="M2285 1370 c3 -5 8 -10 11 -10 2 0 4 5 4 10 0 6 -5 10 -11 10 -5 0
-7 -4 -4 -10z"/>
<path d="M2525 1330 c3 -5 8 -10 11 -10 2 0 4 5 4 10 0 6 -5 10 -11 10 -5 0
-7 -4 -4 -10z"/>
<path d="M1787 1063 c-4 -3 -7 -11 -7 -17 0 -6 5 -5 12 2 6 6 9 14 7 17 -3 3
-9 2 -12 -2z"/>
<path d="M1480 901 c0 -5 5 -13 10 -16 6 -3 10 -2 10 4 0 5 -4 13 -10 16 -5 3
-10 2 -10 -4z"/>
<path d="M1807 913 c-4 -3 -7 -11 -7 -17 0 -6 5 -5 12 2 6 6 9 14 7 17 -3 3
-9 2 -12 -2z"/>
<path d="M1860 889 c0 -5 5 -7 10 -4 6 3 10 8 10 11 0 2 -4 4 -10 4 -5 0 -10
-5 -10 -11z"/>
<path d="M2107 903 c-4 -3 -7 -11 -7 -17 0 -6 5 -5 12 2 6 6 9 14 7 17 -3 3
-9 2 -12 -2z"/>
<path d="M2040 901 c0 -5 5 -13 10 -16 6 -3 10 -2 10 4 0 5 -4 13 -10 16 -5 3
-10 2 -10 -4z"/>
<path d="M1880 810 c0 -5 5 -10 11 -10 5 0 7 5 4 10 -3 6 -8 10 -11 10 -2 0
-4 -4 -4 -10z"/>
<path d="M1555 810 c3 -5 11 -10 16 -10 6 0 7 5 4 10 -3 6 -11 10 -16 10 -6 0
-7 -4 -4 -10z"/>
<path d="M1680 810 c0 -5 5 -10 11 -10 5 0 7 5 4 10 -3 6 -8 10 -11 10 -2 0
-4 -4 -4 -10z"/>
<path d="M1800 749 c0 -5 5 -7 10 -4 6 3 10 8 10 11 0 2 -4 4 -10 4 -5 0 -10
-5 -10 -11z"/>
<path d="M1700 671 c0 -5 5 -13 10 -16 6 -3 10 -2 10 4 0 5 -4 13 -10 16 -5 3
-10 2 -10 -4z"/>
<path d="M2266 1746 c8 -20 34 -29 34 -12 0 8 -7 17 -16 20 -22 9 -24 8 -18
-8z"/>
<path d="M2342 1028 c2 -5 8 -9 13 -9 5 0 11 4 13 9 1 5 -4 9 -13 9 -9 0 -14
-4 -13 -9z"/>
<path d="M1860 630 c0 -13 18 -22 24 -11 3 5 -1 11 -9 15 -8 3 -15 1 -15 -4z"/>
</g>
</svg>
